<?xml version="1.0" encoding="UTF-8" standalone="no"?>
<!-- Generated by Pixelmator Pro 3.6.8 -->

<svg
   width="1024"
   height="1024"
   viewBox="0 0 1024 1024"
   version="1.1"
   id="svg1"
   sodipodi:docname="man-epita.svg"
   xml:space="preserve"
   inkscape:version="1.4.2 (ebf0e940d0, 2025-05-08)"
   xmlns:inkscape="http://www.inkscape.org/namespaces/inkscape"
   xmlns:sodipodi="http://sodipodi.sourceforge.net/DTD/sodipodi-0.dtd"
   xmlns="http://www.w3.org/2000/svg"
   xmlns:svg="http://www.w3.org/2000/svg"><defs
     id="defs1" /><sodipodi:namedview
     id="namedview1"
     pagecolor="#505050"
     bordercolor="#eeeeee"
     borderopacity="1"
     inkscape:showpageshadow="0"
     inkscape:pageopacity="0"
     inkscape:pagecheckerboard="0"
     inkscape:deskcolor="#505050"
     showguides="true"
     inkscape:zoom="0.58212013"
     inkscape:cx="496.4611"
     inkscape:cy="612.41654"
     inkscape:window-width="1920"
     inkscape:window-height="1052"
     inkscape:window-x="0"
     inkscape:window-y="0"
     inkscape:window-maximized="1"
     inkscape:current-layer="svg1" /><path
     style="baseline-shift:baseline;display:inline;overflow:visible;isolation:isolate;vector-effect:none;fill:#876ff6;fill-rule:evenodd;enable-background:accumulate;stop-color:#000000;stop-opacity:1;opacity:1;fill-opacity:1"
     d="M 505.41992,165.08984 6.1054687,486.07812 538.70703,861.75391 Z M 487.0957,200.64844 516.77734,821.80859 41.894531,486.84766 Z"
     id="Path"
     transform="matrix(1.0069116,0,0,1.0069116,-6.147835,-166.23178)" /><path
     style="baseline-shift:baseline;display:inline;overflow:visible;isolation:isolate;vector-effect:none;fill:#876ff6;fill-rule:evenodd;enable-background:accumulate;stop-color:#000000;stop-opacity:1;opacity:1;fill-opacity:1"
     d="M 742.26758,171.47852 70.792969,687.81445 953.06445,681.89258 Z m -8.51563,31.77734 189.49805,458.83789 -793.11914,5.32227 z"
     id="path1"
     transform="matrix(1.0069116,0,0,1.0069116,-6.147835,-166.23178)" /><path
     style="baseline-shift:baseline;display:inline;overflow:visible;isolation:isolate;vector-effect:none;fill:#876ff6;fill-rule:evenodd;enable-background:accumulate;stop-color:#000000;stop-opacity:1;opacity:1;fill-opacity:1"
     d="M 533.03516,209.26562 257.31445,773.78125 1022.6777,572.93359 Z m 7.40429,30.41211 436.88086,324.48047 -682.89062,179.20508 z"
     id="path2"
     transform="matrix(1.0069116,0,0,1.0069116,-6.147835,-166.23178)" /><path
     style="font-weight:500;font-size:85.3333px;line-height:1;font-family:'Fira Code';-inkscape-font-specification:'Fira Code Medium';text-align:center;text-anchor:middle;isolation:isolate;fill:#876ff6;stroke-width:20;stroke-linejoin:bevel;fill-opacity:1"
     d="m 688.63622,630.35887 q 0,6.69538 -3.98222,10.80889 -3.98222,4.1135 -9.75863,5.82017 l 17.11042,26.30016 h -11.81538 l -15.18495,-24.85606 h -6.60786 v 24.85606 h -10.15248 v -60.38972 h 16.84786 q 11.59658,0 17.54803,4.37606 5.99521,4.33231 5.99521,13.08444 z m -10.63384,0 q 0,-5.25128 -3.06325,-7.57059 -3.06325,-2.36308 -9.27726,-2.36308 h -7.26427 v 20.56751 h 7.48307 q 5.77641,0 8.92718,-2.45059 3.19453,-2.49436 3.19453,-8.18325 z M 724.52,621.08161 v 52.20648 h -10.15247 v -52.20648 h -18.11692 v -8.18324 h 46.82391 l -1.05025,8.18324 z m 42.57917,-0.48137 v 19.21094 h 22.71178 v 7.70187 h -22.71178 v 25.77504 h -10.15248 v -60.38972 h 37.15281 l -1.13778,7.70187 z m 78.11283,-7.70187 3.41333,60.38972 h -9.27726 l -1.44411,-29.40717 q -0.30632,-6.60786 -0.26256,-12.34051 0.0438,-5.77641 0.2188,-9.71487 l -8.88341,40.8287 h -8.83966 l -9.53982,-40.8287 q 0.26256,3.76342 0.35008,9.80239 0.13129,6.03897 -0.0875,12.34051 l -1.18153,29.31965 h -9.10222 l 3.41333,-60.38972 h 12.16546 l 8.62085,40.47861 8.22701,-40.47861 z"
     id="text1"
     aria-label="RTFM" /><path
     fill="currentColor"
     d="m 483.55542,1027.7545 v -28.44465 c 0,-51.7689 -18.22337,-95.53536 -54.67009,-131.29941 C 392.43861,832.2461 348.27393,814.38299 296.39125,814.4211 H 0 v -56.88918 h 296.50475 c 46.23189,0 88.48142,11.60533 126.74858,34.81601 38.22933,23.17284 67.81156,54.59456 88.74667,94.26516 20.93511,-39.6706 50.51734,-71.09232 88.74667,-94.26516 38.30528,-23.21068 80.21348,-34.81601 125.72458,-34.81601 H 1024 V 814.4211 H 726.47125 c -51.80701,0 -95.7632,17.86311 -131.86858,53.58934 -36.10538,35.72622 -54.15809,79.49268 -54.15809,131.29941 v 28.44465 z"
     id="path1-5"
     style="stroke-width:56.8887;stroke:none;stroke-opacity:1;fill:#876ff6;fill-opacity:1"
     sodipodi:nodetypes="csscccscccsccssscc" /></svg>
